<?xml version="1.0"?><svg width="656.80536" height="591.75153" xmlns="http://www.w3.org/2000/svg">
 <title>koszyk</title>
 <defs>
  <filter id="g3257_blur">
   <feGaussianBlur stdDeviation="0.9"/>
  </filter>
 </defs>
 <metadata id="metadata7">image/svg+xmlMarket Basket27.06.2007Jakub Klawiter</metadata>
 <g>
  <title>Layer 1</title>
  <g id="layer1">
   <g filter="url(#g3257_blur)" transform="matrix(0.537825, 0, 0, 0.531125, 162.274, 322.532)" id="g3257">
    <path stroke-linejoin="round" stroke-miterlimit="4" stroke-width="30" stroke-dashoffset="0" stroke-linecap="round" fill-rule="nonzero" d="m-41.2024,339.55899c190.447395,-82.024994 519.487434,-59.397003 692.964424,53.740021c63.167969,-78.253021 41.483948,-266.815002 -31.112,-288.5c49.967957,-191.389999 -49.968994,-600.56897 192.332947,-613.768005c97.109009,103.708984 157.449036,-126.337036 2.828003,-70.710999c-319.582977,30.768982 -208.155945,428.583008 -282.842957,664.680176c-267.758026,-58.454203 -716.535034,69.767807 -625.082214,141.421799c265.872192,-71.653992 593.970154,-157.4496 712.764221,87.680984c-131.994019,-131.992981 -620.368844,-108.422989 -661.852425,25.456024l0,0z" id="path3176" fill="#38acec"/>
    <g id="g3249" fill="#000000">
     <path stroke-width="30" stroke-linecap="round" stroke-linejoin="round" stroke-miterlimit="4" fill-rule="nonzero" stroke-dashoffset="0" id="path3202" d="m-21.403431,96.313927c-212.132046,-178.19091 -690.584972,-697.502953 574.170704,-444.063042c-930.55249,-50.911713 -808.930115,28.284271 -574.170704,444.063042z" fill="#38acec"/>
     <path stroke-linecap="round" stroke-linejoin="round" stroke-miterlimit="4" fill-rule="nonzero" stroke-dashoffset="0" stroke-width="30" id="path3204" d="m-179.794998,-186.529007c207.417698,-68.824997 457.262009,-95.223984 684.478989,-50.910995c-214.018005,-15.084991 -461.976391,37.712006 -661.85199,104.651001c-7.542007,-17.912994 -15.085007,-35.826004 -22.626999,-53.740005l0,0l0,0z" fill="#38acec"/>
     <path stroke-linecap="round" stroke-linejoin="round" stroke-miterlimit="4" fill-rule="nonzero" stroke-dashoffset="0" stroke-width="30" id="path3206" d="m-111.913002,-56.421101c10.371002,19.798901 20.741699,39.5979 31.112602,59.396931c140.4786,-90.509628 334.697403,-130.107834 534.572403,-118.793831c-148.020996,-76.368004 -335.639999,-48.083 -565.685005,59.3969l0,0l0,0z" fill="#38acec"/>
     <path stroke-linecap="round" stroke-linejoin="round" stroke-miterlimit="4" fill-rule="nonzero" stroke-dashoffset="0" stroke-width="30" id="path3208" d="m-168.481995,-330.778992c27.341995,-12.256012 54.682991,-24.513 82.024696,-36.769012c118.793999,143.307007 181.019402,292.270706 220.617302,446.891403c-75.424706,-145.192596 -159.334703,-276.243393 -302.641998,-410.122391l0,0l0,0z" fill="#38acec"/>
     <path stroke-linecap="round" stroke-linejoin="round" stroke-miterlimit="4" fill-rule="nonzero" stroke-dashoffset="0" stroke-width="30" id="path3210" d="m1.22398,-381.690002c23.570221,-0.942993 47.140419,-1.885986 70.71072,-2.82901c107.480293,130.108017 152.735298,263.044014 152.735298,398.808513c-40.541,-131.993503 -103.709,-263.986506 -223.446008,-395.979503l-0.00001,0z" fill="#38acec"/>
     <path stroke-linecap="round" stroke-linejoin="round" stroke-miterlimit="4" fill-rule="nonzero" stroke-dashoffset="0" stroke-width="30" id="path3212" d="m199.213882,-378.861816c22.627441,0.94281 45.254852,1.88562 67.882248,2.82843c43.369202,112.194275 75.424744,218.731689 70.710693,336.582825c-15.084961,-118.793945 -69.767883,-223.44574 -138.592941,-339.411255z" fill="#38acec"/>
    </g>
    <path stroke-width="9.127374" stroke-linecap="round" stroke-linejoin="round" stroke-miterlimit="4" fill-rule="nonzero" stroke-dashoffset="0" stroke="#fffdff" fill="#38acec" d="m21.5326,291.164001c-17.018341,0.243988 -32.8954,5.085999 -45.625,14.968994c-37.031502,28.748016 -33.5751,89.26001 7.7188,135.093018c41.2938,45.832977 104.874699,59.71698 141.906597,30.968994c37.030998,-28.748016 33.57502,-89.291992 -7.718987,-135.125c-27.099312,-30.078003 -63.791801,-46.372009 -96.28141,-45.906006l0,0zm29.125,57.406006c14.226997,-0.220001 30.289703,7.498993 42.156197,21.687988c18.082207,21.621002 19.6222,50.157013 3.406303,63.718018c-16.215897,13.561981 -44.073902,7.027985 -62.1562,-14.593018c-18.0824,-21.622009 -19.5909,-50.188995 -3.375,-63.75c5.5742,-4.661987 12.516499,-6.947998 19.9687,-7.062988z" id="path3234"/>
    <path stroke-width="9.127374" stroke-linecap="round" stroke-linejoin="round" stroke-miterlimit="4" fill-rule="nonzero" stroke-dashoffset="0" stroke="#fffdff" fill="#38acec" d="m526.408203,291.163788c-17.018372,0.243835 -32.895447,5.086426 -45.625,14.96875c-37.031555,28.748413 -33.575134,89.260803 7.71875,135.09375c41.293884,45.832886 104.874695,59.717133 141.90625,30.96875c37.031494,-28.748474 33.575134,-89.292114 -7.71875,-135.125c-27.099121,-30.077881 -63.791687,-46.371765 -96.28125,-45.90625zm29.125,57.40625c14.226929,-0.219604 30.289673,7.498596 42.15625,21.6875c18.082275,21.621155 19.622131,50.156982 3.40625,63.71875c-16.215881,13.561707 -44.073914,7.027405 -62.15625,-14.59375c-18.082336,-21.621216 -19.590881,-50.188293 -3.375,-63.75c5.574219,-4.661865 12.516541,-6.94751 19.96875,-7.0625z" id="path3243"/>
   </g>
  </g>
 </g>
</svg>